<svg xmlns="http://www.w3.org/2000/svg" xmlns:xlink="http://www.w3.org/1999/xlink" viewBox="0 0 828.95 828.95">
  <defs>
    <style>
      .cls-1 {
        fill: none;
      }

      .cls-2 {
        fill: #72c8f1;
      }

      .cls-3 {
        clip-path: url(#clip-path);
      }

      .cls-4 {
        fill: #464646;
      }

      .cls-5 {
        clip-path: url(#clip-path-2);
      }
    </style>
    <clipPath id="clip-path">
      <rect class="cls-1" x="258.84" y="267.12" width="413.96" height="383.85"/>
    </clipPath>
    <clipPath id="clip-path-2">
      <rect class="cls-1" x="410.52" y="162.29" width="109.33" height="109.32"/>
    </clipPath>
  </defs>
  <g id="Capa_1" data-name="Capa 1">
    <path class="cls-2" d="M414.48,0C185.56,0,0,185.56,0,414.47S185.56,829,414.48,829H829V414.47C829,185.56,643.39,0,414.48,0Z"/>
    <g class="cls-3">
      <path class="cls-4" d="M574.65,504.24l-1.51,1.83c.06-1.74.1-3.48.1-5.22,0-81-64.36-147.15-144.55-150V296.45a29,29,0,0,0-28.91-28.93h-112a29,29,0,0,0-28.91,28.93v75.82a81.11,81.11,0,0,0,8.67-.37c6.81-.69,13.46-2.1,20.24-2.6V296.45h112v56.12C328.2,363.89,273.3,426.07,273.3,500.85c0,82.78,67.27,150.12,150,150.12,70.25,0,129.36-48.6,145.56-114l67.47,55.9c6.05-7.52,11.65-15.43,18-22.63ZM423.27,622c-66.75,0-121.06-54.37-121.06-121.19s54.31-121.19,121.06-121.19S544.33,434,544.33,500.85,490,622,423.27,622Z"/>
    </g>
    <g class="cls-5">
      <path class="cls-4" d="M490.12,216.87a25.3,25.3,0,1,1-25.3-25.32A25.33,25.33,0,0,1,490.12,216.87Zm-79.5,0a54.21,54.21,0,1,0,54.2-54.26,54.29,54.29,0,0,0-54.2,54.26"/>
    </g>
  </g>
  <g id="Capa_2" data-name="Capa 2">
    <rect class="cls-4" x="258.84" y="308.78" width="28.91" height="90.89" rx="10.36"/>
    <rect class="cls-4" x="587.23" y="478.71" width="30.5" height="133.62" rx="10.36" transform="translate(-202.09 660.63) rotate(-50.3)"/>
  </g>
</svg>
